<svg xmlns="http://www.w3.org/2000/svg" viewBox="0 0 256 256">
  <rect width="256" height="256" fill="#2E7D9A"/>
  <rect x="50" y="70" width="156" height="130" rx="8" fill="#4CAF93"/>
  <rect x="50" y="70" width="156" height="35" rx="8" fill="#1E5F7A"/>
  <rect x="50" y="95" width="156" height="10" fill="#4CAF93"/>
  <circle cx="85" cy="85" r="6" fill="#E8F5F1"/>
  <circle cx="115" cy="85" r="6" fill="#E8F5F1"/>
  <circle cx="145" cy="85" r="6" fill="#E8F5F1"/>
  <circle cx="175" cy="85" r="6" fill="#E8F5F1"/>
  <rect x="65" y="125" width="30" height="25" rx="3" fill="#1E5F7A"/>
  <rect x="113" y="125" width="30" height="25" rx="3" fill="#1E5F7A"/>
  <rect x="161" y="125" width="30" height="25" rx="3" fill="#1E5F7A"/>
  <ellipse cx="95" cy="165" rx="28" ry="20" fill="#FFFFFF" opacity="0.9"/>
  <ellipse cx="161" cy="165" rx="28" ry="20" fill="#FFFFFF" opacity="0.9"/>
  <rect x="118" y="160" width="20" height="6" rx="3" fill="#1E5F7A"/>
  <path d="M67 165 Q60 170 55 165" stroke="#1E5F7A" stroke-width="3" fill="none" stroke-linecap="round"/>
  <path d="M189 165 Q196 170 201 165" stroke="#1E5F7A" stroke-width="3" fill="none" stroke-linecap="round"/>
</svg>